<svg xmlns="http://www.w3.org/2000/svg" xmlns:xlink="http://www.w3.org/1999/xlink" version="1.1" x="0px" y="0px" viewBox="0 0 90 112.5" style="enable-background:new 0 0 90 90;" xml:space="preserve"><g><path d="M11.2861328,42.1298828h1.8208008v-2.3963013h2.201355v-1.3916626h0.6696777v1.3916626h2.201355v2.3963013h1.4057617   l0.515686-0.262207v-2.4257202h1.5509644v1.6382446l1.4038086-0.713501v-2.3903809   c-0.425354-0.140564-0.7341309-0.5375366-0.7341309-1.0097046c0-0.5906372,0.4784546-1.0693359,1.0689697-1.0693359   c0.5906372,0,1.0693359,0.4786987,1.0693359,1.0693359c0,0.472168-0.309021,0.8691406-0.7344971,1.0097046v2.050293   l6.5334473-3.3184204v6.3573608h1.6112061c0.3919678-0.5837402,1.0578003-0.9683838,1.8134766-0.9683838   c0.7560425,0,1.4217529,0.3846436,1.8137207,0.9683838h1.824646v3.6990967   c0.2513428-0.0853882,0.5192261-0.1340942,0.7991333-0.1340942c0.5708618,0,1.0959473,0.1956177,1.515564,0.520752v-2.934021   l0.3000488,0.0467529c0.0291748,0.0043335,1.5162964,0.2558594,2.9699097,1.3025513v-0.6572266h2.9273071v-7.3352661h2.838623   v-0.6749268h3.6199341v0.6749268h2.0784302v-0.4950562c-0.4254761-0.1412964-0.7341309-0.5376587-0.7341309-1.010437   C53.6365356,35.4780273,54.1149902,35,54.7055054,35c0.5906372,0,1.0692749,0.4780273,1.0692749,1.0686035   c0,0.4727783-0.30896,0.8691406-0.734436,1.010437v0.4950562h3.2749634v4.6564941   c0.5836182,0.5167847,1.1257324,1.1567993,1.5671997,1.9425659v-4.8430786h1.3413696v-2.3131714h9.1304932v2.3131714h1.3413696   v2.9992676c0.460083-0.257019,0.9888916-0.4048462,1.5519409-0.4048462c0.1030273,0,0.2046509,0.0046387,0.3054199,0.0144653   v-1.3414307c-0.4257202-0.1412354-0.7344971-0.5375977-0.7344971-1.010437c0-0.5905151,0.4784546-1.0685425,1.0693359-1.0685425   c0.59021,0,1.0686646,0.4780273,1.0686646,1.0685425c0,0.4728394-0.3087158,0.8692017-0.7338257,1.010437v1.4819946   c1.1837769,0.3806763,2.0692749,1.4316406,2.2027588,2.7056274h1.5256348v16.5554199   c2.4464111-4.9234619,3.8289185-10.468689,3.8289185-16.3393555c0-20.3137817-16.4675293-36.781311-36.7801514-36.781311   c-20.3137817,0-36.7800293,16.4675293-36.7800293,36.781311c0,5.2297363,1.0985107,10.2007446,3.0662231,14.7052002V42.1298828z"/></g><text x="0" y="105" fill="#000000" font-size="5px" font-weight="bold" font-family="'Helvetica Neue', Helvetica, Arial-Unicode, Arial, Sans-serif">Created by iconcheese</text><text x="0" y="110" fill="#000000" font-size="5px" font-weight="bold" font-family="'Helvetica Neue', Helvetica, Arial-Unicode, Arial, Sans-serif">from the Noun Project</text></svg>