<svg xmlns="http://www.w3.org/2000/svg" xmlns:xlink="http://www.w3.org/1999/xlink" version="1.1" x="0px" y="0px" viewBox="0 0 512 640" enable-background="new 0 0 512 512" xml:space="preserve"><path d="M469.349,400.441c-2.884-8.224-8.117-15.124-14.735-19.429c-7.839-5.099-17.115-6.224-26.167-3.186l-92.131,23.687  c3.818-16.181-2.785-30.94-16.961-36.361c-0.383-0.146-0.774-0.27-1.173-0.368l-114.218-28.213  c-17.271-4.266-35.798-2.785-52.172,4.168l-23.135,9.824v-13.855c0-5.523-4.478-10-10-10H50.326c-5.522,0-10,4.477-10,10v137.211  c0,5.523,4.478,10,10,10h68.331c5.522,0,10-4.477,10-10v-5.437L151,465.919c9.974-1.145,20.017-0.686,29.848,1.363l86.498,18.036  c7.644,1.594,15.427,2.388,23.207,2.388c11.265,0,22.522-1.664,33.333-4.973l126.821-38.803c0.129-0.04,0.257-0.082,0.384-0.127  C470.654,436.943,475.084,416.797,469.349,400.441z M108.657,463.919H60.326V346.708h48.331V463.919z M444.637,424.872  l-126.603,38.736c-15.065,4.609-31.182,5.348-46.606,2.131l-86.498-18.035c-11.924-2.486-24.104-3.044-36.209-1.655l-20.064,2.302  v-76.059l30.952-13.145c12.415-5.272,26.467-6.394,39.559-3.16l113.51,28.039c7.88,3.527,3.412,15.492,3.215,16.01  c-1.467,3.834-3.837,7.043-6.505,8.803c-2.264,1.495-4.386,1.771-6.852,0.881c-0.437-0.176-0.892-0.324-1.36-0.439l-63.21-15.613  c-5.361-1.326-10.782,1.948-12.106,7.31c-1.324,5.362,1.948,10.782,7.31,12.106l62.643,15.473c3.131,1.119,6.283,1.658,9.382,1.658  c4.866-0.001,9.587-1.348,13.87-3.838c0.683-0.03,1.371-0.129,2.06-0.306l112.683-28.97c0.276-0.072,0.55-0.154,0.819-0.249  c3.347-1.174,6.319-0.872,9.083,0.927c2.892,1.881,5.358,5.264,6.768,9.281C450.977,408.489,455.048,421.074,444.637,424.872z"/><path d="M280.975,24.294c-30.6,0-55.495,24.895-55.495,55.494s24.895,55.494,55.495,55.494c30.6,0,55.494-24.895,55.494-55.494  S311.574,24.294,280.975,24.294z M280.975,115.282c-19.571,0-35.495-15.922-35.495-35.494c0-19.571,15.923-35.494,35.495-35.494  s35.494,15.923,35.494,35.494C316.469,99.36,300.546,115.282,280.975,115.282z"/><path d="M383.952,116.898c-30.6,0-55.494,24.895-55.494,55.494s24.895,55.494,55.494,55.494s55.494-24.895,55.494-55.494  S414.552,116.898,383.952,116.898z M383.952,207.887c-19.571,0-35.494-15.922-35.494-35.494c0-19.571,15.923-35.494,35.494-35.494  s35.494,15.923,35.494,35.494C419.446,191.965,403.523,207.887,383.952,207.887z"/><path d="M280.975,218.381c-30.6,0-55.495,24.895-55.495,55.494s24.895,55.494,55.495,55.494c30.6,0,55.494-24.895,55.494-55.494  S311.574,218.381,280.975,218.381z M280.975,309.369c-19.571,0-35.495-15.923-35.495-35.494c0-19.572,15.923-35.494,35.495-35.494  s35.494,15.922,35.494,35.494C316.469,293.446,300.546,309.369,280.975,309.369z"/><text x="0" y="527" fill="#000000" font-size="5px" font-weight="bold" font-family="'Helvetica Neue', Helvetica, Arial-Unicode, Arial, Sans-serif">Created by Chanut is Industries</text><text x="0" y="532" fill="#000000" font-size="5px" font-weight="bold" font-family="'Helvetica Neue', Helvetica, Arial-Unicode, Arial, Sans-serif">from the Noun Project</text></svg>