<svg xmlns="http://www.w3.org/2000/svg" viewBox="0 0 68 85" x="0px" y="0px"><path fill="#000000" d="M90,360 C91.1045695,360 92,360.895431 92,362 C92,363.104569 91.1045695,364 90,364 C71.2223185,364 56,348.777681 56,330 C56,311.222319 71.2223185,296 90,296 C91.1045695,296 92,296.895431 92,298 C92,299.104569 91.1045695,300 90,300 C73.4314575,300 60,313.431458 60,330 C60,346.568542 73.4314575,360 90,360 Z M90,330 L106,330 C107.104569,330 108,330.895431 108,332 C108,333.104569 107.104569,334 106,334 L88,334 C86.8954305,334 86,333.104569 86,332 L86,308 C86,306.895431 86.8954305,306 88,306 C89.1045695,306 90,306.895431 90,308 L90,330 Z M97.7645714,301.022225 C96.6976391,300.736342 96.0644742,299.639668 96.3503578,298.572735 C96.6362414,297.505803 97.7329153,296.872638 98.7998475,297.158522 C99.8667797,297.444406 100.499945,298.541079 100.214061,299.608012 C99.9281775,300.674944 98.8315036,301.308109 97.7645714,301.022225 Z M105,304.019238 C104.043415,303.466953 103.715664,302.243772 104.267949,301.287187 C104.820234,300.330602 106.043415,300.002852 107,300.555136 C107.956585,301.107421 108.284336,302.330602 107.732051,303.287187 C107.179766,304.243772 105.956585,304.571523 105,304.019238 Z M111.213203,308.786797 C110.432155,308.005748 110.432155,306.739418 111.213203,305.958369 C111.994252,305.177321 113.260582,305.177321 114.041631,305.958369 C114.822679,306.739418 114.822679,308.005748 114.041631,308.786797 C113.260582,309.567845 111.994252,309.567845 111.213203,308.786797 Z M115.980762,315 C115.428477,314.043415 115.756228,312.820234 116.712813,312.267949 C117.669398,311.715664 118.892579,312.043415 119.444864,313 C119.997148,313.956585 119.669398,315.179766 118.712813,315.732051 C117.756228,316.284336 116.533047,315.956585 115.980762,315 Z M118.977775,322.235429 C118.691891,321.168496 119.325056,320.071823 120.391988,319.785939 C121.458921,319.500055 122.555594,320.13322 122.841478,321.200152 C123.127362,322.267085 122.494197,323.363759 121.427265,323.649642 C120.360332,323.935526 119.263658,323.302361 118.977775,322.235429 Z M120,330 C120,328.895431 120.895431,328 122,328 C123.104569,328 124,328.895431 124,330 C124,331.104569 123.104569,332 122,332 C120.895431,332 120,331.104569 120,330 Z M118.977775,337.764571 C119.263658,336.697639 120.360332,336.064474 121.427265,336.350358 C122.494197,336.636241 123.127362,337.732915 122.841478,338.799848 C122.555594,339.86678 121.458921,340.499945 120.391988,340.214061 C119.325056,339.928177 118.691891,338.831504 118.977775,337.764571 Z M115.980762,345 C116.533047,344.043415 117.756228,343.715664 118.712813,344.267949 C119.669398,344.820234 119.997148,346.043415 119.444864,347 C118.892579,347.956585 117.669398,348.284336 116.712813,347.732051 C115.756228,347.179766 115.428477,345.956585 115.980762,345 Z M111.213203,351.213203 C111.994252,350.432155 113.260582,350.432155 114.041631,351.213203 C114.822679,351.994252 114.822679,353.260582 114.041631,354.041631 C113.260582,354.822679 111.994252,354.822679 111.213203,354.041631 C110.432155,353.260582 110.432155,351.994252 111.213203,351.213203 Z M105,355.980762 C105.956585,355.428477 107.179766,355.756228 107.732051,356.712813 C108.284336,357.669398 107.956585,358.892579 107,359.444864 C106.043415,359.997148 104.820234,359.669398 104.267949,358.712813 C103.715664,357.756228 104.043415,356.533047 105,355.980762 Z M97.7645714,358.977775 C98.8315036,358.691891 99.9281775,359.325056 100.214061,360.391988 C100.499945,361.458921 99.8667797,362.555594 98.7998475,362.841478 C97.7329153,363.127362 96.6362414,362.494197 96.3503578,361.427265 C96.0644742,360.360332 96.6976391,359.263658 97.7645714,358.977775 Z" transform="translate(-56 -296)"/><text x="0" y="83" fill="#000000" font-size="5px" font-weight="bold" font-family="'Helvetica Neue', Helvetica, Arial-Unicode, Arial, Sans-serif">Created by Andrejs Kirma</text><text x="0" y="88" fill="#000000" font-size="5px" font-weight="bold" font-family="'Helvetica Neue', Helvetica, Arial-Unicode, Arial, Sans-serif">from the Noun Project</text></svg>