<svg xmlns="http://www.w3.org/2000/svg" viewBox="0 0 64 80" x="0px" y="0px"><g><path d="M39,56V32H25V56h3V48a1,1,0,0,1,1-1h6a1,1,0,0,1,1,1v8ZM29,45H27V43h2Zm0-4H27V39h2Zm0-4H27V35h2Zm4,8H31V43h2Zm0-4H31V39h2Zm0-4H31V35h2Zm2-2h2v2H35Zm0,4h2v2H35Zm0,6V43h2v2Z"/><rect x="30" y="49" width="4" height="7"/><rect x="21" y="32" width="2" height="24"/><path d="M22,8V22H42V8Zm7,12H27V18h2Zm0-4H27V14h2Zm0-4H27V10h2Zm4,8H31V18h2Zm0-4H31V14h2Zm0-4H31V10h2Zm4,8H35V18h2Zm0-4H35V14h2Zm0-4H35V10h2Z"/><rect x="4" y="58" width="56" height="2"/><rect x="41" y="32" width="2" height="24"/><rect x="18" y="4" width="28" height="2"/><path d="M43,24H21v6H43ZM25,28H23V26h2Zm16,0H39V26h2Z"/><path d="M55,56V16H44v6a1,1,0,0,1,1,1V56ZM51,18h2v2H51Zm0,4h2v2H51Zm0,4h2v2H51Zm0,4h2v2H51Zm0,4h2v2H51Zm0,4h2v2H51Zm0,4h2v2H51Zm0,4h2v2H51Zm0,4h2v2H51ZM47,18h2v2H47Zm0,4h2v2H47Zm0,4h2v2H47Zm0,4h2v2H47Zm0,4h2v2H47Zm0,4h2v2H47Zm0,4h2v2H47Zm0,4h2v2H47Zm0,4h2v2H47Z"/><path d="M19,23a1,1,0,0,1,1-1V16H9V56H19ZM13,52H11V50h2Zm0-4H11V46h2Zm0-4H11V42h2Zm0-4H11V38h2Zm0-4H11V34h2Zm0-4H11V30h2Zm0-4H11V26h2Zm0-4H11V22h2Zm0-4H11V18h2Zm4,32H15V50h2Zm0-4H15V46h2Zm0-4H15V42h2Zm0-4H15V38h2Zm0-4H15V34h2Zm0-4H15V30h2Zm0-4H15V26h2Zm0-4H15V22h2Zm0-4H15V18h2Z"/></g><text x="0" y="79" fill="#000000" font-size="5px" font-weight="bold" font-family="'Helvetica Neue', Helvetica, Arial-Unicode, Arial, Sans-serif">Created by Smalllike</text><text x="0" y="84" fill="#000000" font-size="5px" font-weight="bold" font-family="'Helvetica Neue', Helvetica, Arial-Unicode, Arial, Sans-serif">from the Noun Project</text></svg>