<svg xmlns="http://www.w3.org/2000/svg" xmlns:xlink="http://www.w3.org/1999/xlink" version="1.1" x="0px" y="0px" viewBox="0 0 50 62.5" enable-background="new 0 0 50 50" xml:space="preserve"><g><g><g><path d="M44.915,44.486v3.48c2.28-0.51,3.75-1.21,3.75-2.1v-2.87C47.805,43.636,46.465,44.126,44.915,44.486z"/></g><g><path d="M24.315,48.346c1,0.15,2.1,0.28,3.26,0.37v-3.46c-1.07-0.1-2.18-0.23-3.26-0.41V48.346z"/></g><g><path d="M29.455,48.846c1.07,0.05,2.17,0.08,3.28,0.09v-3.41c-0.79-0.01-1.95-0.05-3.28-0.13V48.846z"/></g><g><path d="M34.605,48.936c1.11-0.02,2.21-0.05,3.28-0.11v-3.43c-1.33,0.08-2.49,0.12-3.28,0.13V48.936z"/></g><g><path d="M18.675,45.864c0,0.94,3.49,2.02,3.75,2.11v-3.49c-1.322-0.309-2.661-0.728-3.75-1.49V45.864z"/></g><g><path d="M39.765,48.686c1.16-0.1,2.26-0.22,3.26-0.38v-3.46c-1.08,0.18-2.19,0.31-3.26,0.41V48.686z"/></g><g><path d="M48.655,41.324c0-1.12-2.69-2.11-6.77-2.67v0.76c0,1.85-2.59,2.64-4.53,3.08c-4.455,0.965-10.399,1.108-15.02,0.93     C31.36,45.656,48.655,44.313,48.655,41.324z"/></g><g><path d="M40.892,38.88v-2.87c-0.86,0.64-2.2,1.13-3.75,1.49v3.48C39.422,40.47,40.892,39.77,40.892,38.88z"/></g><g><path d="M19.802,38.27c-1.07-0.1-2.18-0.23-3.26-0.41v3.5c1,0.15,2.1,0.28,3.26,0.37V38.27z"/></g><g><path d="M24.962,41.95v-3.41c-0.79-0.01-1.95-0.05-3.28-0.13v3.45C22.753,41.91,23.852,41.94,24.962,41.95z"/></g><g><path d="M30.112,41.84v-3.43c-1.33,0.08-2.49,0.12-3.28,0.13v3.41C27.943,41.93,29.042,41.9,30.112,41.84z"/></g><g><path d="M10.902,38.88c0,1.01,3.96,2.16,3.75,2.11V37.5c-1.55-0.36-2.89-0.85-3.75-1.49V38.88z"/></g><g><path d="M35.253,41.32v-3.46c-1.08,0.18-2.19,0.31-3.26,0.41v3.43C33.152,41.6,34.253,41.48,35.253,41.32z"/></g><g><path d="M37.945,35.734c-4.396,0.261-20.27,0.479-20.27-3.95v-0.12c-4.08,0.57-6.77,1.56-6.77,2.68c0,1.77,6.71,3.2,14.99,3.2     c6.17,0,11.46-0.79,13.76-1.94L37.945,35.734z"/></g><g><path d="M48.665,31.515v-2.87c-0.86,0.64-2.2,1.13-3.75,1.49v3.48C47.195,33.105,48.665,32.405,48.665,31.515z"/></g><g><path d="M24.315,30.495v3.5c1,0.15,2.1,0.28,3.26,0.37v-3.46C26.505,30.805,25.395,30.675,24.315,30.495z"/></g><g><path d="M29.455,31.045v3.45c1.07,0.05,2.17,0.08,3.28,0.09v-3.41C31.945,31.165,30.785,31.125,29.455,31.045z"/></g><g><path d="M34.605,31.175v3.41c1.11-0.02,2.21-0.05,3.28-0.11v-3.43C36.555,31.125,35.395,31.165,34.605,31.175z"/></g><g><path d="M22.425,30.135c-1.55-0.36-2.89-0.85-3.75-1.49v2.87c0,1.01,3.96,2.16,3.75,2.11V30.135z"/></g><g><path d="M43.025,30.495c-1.08,0.18-2.19,0.31-3.26,0.41v3.43c1.16-0.1,2.26-0.22,3.26-0.38V30.495z"/></g><g><path d="M48.655,26.974c0-1.12-2.69-2.11-6.77-2.67v0.22c0,1.85-2.59,2.64-4.53,3.07c-0.6,0.14-1.25,0.25-1.94,0.36     c-1.13,0.17-2.25,0.3-3.35,0.38l-1.89,0.14c-1.18,0.07-2.27,0.11-3.33,0.12c-0.31,0-0.63,0.01-0.94,0.01     c-0.32,0-0.96-0.01-0.96-0.01c-1.22,0-2.41-0.05-3.31-0.09l-1.34-0.08c2.46,1.04,7.53,1.76,13.38,1.76     C41.945,30.184,48.655,28.744,48.655,26.974z"/></g><g><path d="M37.142,26.629c2.28-0.51,3.75-1.21,3.75-2.1v-2.87c-0.86,0.64-2.2,1.13-3.75,1.49V26.629z"/></g><g><path d="M24.965,24.304c-0.96,1.01-2.06,1.86-3.28,2.55v0.66c1.07,0.05,2.17,0.08,3.28,0.09V24.304z"/></g><g><path d="M30.112,27.489v-3.43c-1.33,0.08-2.49,0.12-3.28,0.13v3.41C27.943,27.579,29.042,27.549,30.112,27.489z"/></g><g><path d="M35.253,26.969v-3.46c-1.08,0.18-2.19,0.31-3.26,0.41v3.43C33.152,27.249,34.253,27.129,35.253,26.969z"/></g><g><path d="M25.925,23.194c6.73,0,12.41-0.95,14.3-2.25c-0.2,0.03-0.48,0.05-2.27,0.18c-2.02,0.1-6.42,0.21-10.61-0.12     C26.945,21.784,26.465,22.514,25.925,23.194z"/></g><g><path d="M44.915,19.264c2.28-0.51,3.75-1.21,3.75-2.1v-2.87c-0.86,0.64-2.2,1.13-3.75,1.49V19.264z"/></g><g><path d="M29.455,16.694v3.45c1.07,0.05,2.17,0.08,3.28,0.09v-3.41C31.945,16.814,30.785,16.774,29.455,16.694z"/></g><g><path d="M34.605,16.824v3.41c1.11-0.02,2.21-0.05,3.28-0.11v-3.43C36.555,16.774,35.395,16.814,34.605,16.824z"/></g><g><path d="M43.025,16.144c-1.08,0.18-2.19,0.31-3.26,0.41v3.43c1.16-0.1,2.26-0.22,3.26-0.38V16.144z"/></g><g><path d="M28.915,15.674c1.5,0.1,3.1,0.16,4.76,0.16c8.27,0,14.98-1.44,14.98-3.21c0-1.77-6.71-3.2-14.98-3.2     c-1.94,0-3.8,0.08-5.51,0.22C28.868,11.607,29.101,13.726,28.915,15.674z"/></g><g><g><path d="M24.925,14.384c0-5.66-4.6-10.27-10.27-10.27c-5.66,0-10.27,4.61-10.27,10.27c0,5.67,4.61,10.27,10.27,10.27      C20.325,24.654,24.925,20.054,24.925,14.384z M15.755,10.564l0.8-2.46l0.81,2.46h2.59l-2.1,1.53l0.8,2.46l-2.1-1.52l-2.09,1.52      l0.8-2.46l-2.1-1.53H15.755z M10.485,9.354c-3.16,6.57,5.21,12.51,10.4,7.6c-2.04,4.22-6.97,4.61-9.98,2.31      C7.775,16.864,7.575,12.094,10.485,9.354z"/></g></g><g><g><path d="M27.975,14.384c0-7.36-5.96-13.32-13.32-13.32c-7.36,0-13.32,5.96-13.32,13.32s5.96,13.32,13.32,13.32      C22.015,27.704,27.975,21.744,27.975,14.384z M3.385,14.384c0-6.21,5.06-11.27,11.27-11.27c6.22,0,11.27,5.06,11.27,11.27      c0,6.22-5.05,11.27-11.27,11.27C8.445,25.654,3.385,20.604,3.385,14.384z"/></g></g></g></g><text x="0" y="65" fill="#000000" font-size="5px" font-weight="bold" font-family="'Helvetica Neue', Helvetica, Arial-Unicode, Arial, Sans-serif">Created by Vectors Market</text><text x="0" y="70" fill="#000000" font-size="5px" font-weight="bold" font-family="'Helvetica Neue', Helvetica, Arial-Unicode, Arial, Sans-serif">from the Noun Project</text></svg>