<svg xmlns="http://www.w3.org/2000/svg" xmlns:xlink="http://www.w3.org/1999/xlink" xmlns:sketch="http://www.bohemiancoding.com/sketch/ns" viewBox="0 0 40 50" version="1.1" x="0px" y="0px"><title>music_play_sequence_orderly_arrow_sound_audio</title><desc>Created with Sketch.</desc><g stroke="none" stroke-width="1" fill="none" fill-rule="evenodd" sketch:type="MSPage"><path d="M11,17 L7,17 L7,26 L19,26 C19,26 20,26 20,27 L20,28 C20,29 19,29 19,29 L6.49296544,29 C5.1136619,29 4,27.8702994 4,26.4975267 L4,16.5024733 C4,15.1205823 5.1181544,14 6.50138006,14 L11,14 L11,12 L16,15.5 L11,19 L11,17 Z M29,26 L33,26 L33,17 L21,17 C21,17 20,17 20,16 L20,15 C20,14 21,14 21,14 L33.5070346,14 C34.8863381,14 36,15.1297006 36,16.5024733 L36,26.4975267 C36,27.8794177 34.8818456,29 33.4986199,29 L29,29 L29,31 L24,27.5 L29,24 L29,26 Z" fill="#000000" sketch:type="MSShapeGroup"/></g><text x="0" y="55" fill="#000000" font-size="5px" font-weight="bold" font-family="'Helvetica Neue', Helvetica, Arial-Unicode, Arial, Sans-serif">Created by Pham Thi Dieu Linh</text><text x="0" y="60" fill="#000000" font-size="5px" font-weight="bold" font-family="'Helvetica Neue', Helvetica, Arial-Unicode, Arial, Sans-serif">from the Noun Project</text></svg>