<svg xmlns="http://www.w3.org/2000/svg" xmlns:xlink="http://www.w3.org/1999/xlink" version="1.1" x="0px" y="0px" viewBox="0 0 39.385 70.89625" enable-background="new 0 0 39.385 56.717" xml:space="preserve"><g><path d="M33.051,56.717H6.336C2.842,56.717,0,53.875,0,50.382v-38.49c0-3.493,2.842-6.334,6.336-6.334h5.858   c0.392,0,0.71,0.318,0.71,0.71s-0.318,0.71-0.71,0.71H6.336c-2.711,0-4.915,2.205-4.915,4.914v38.49   c0,2.71,2.204,4.914,4.915,4.914h26.715c2.71,0,4.915-2.204,4.915-4.914v-38.49c0-2.709-2.205-4.914-4.915-4.914h-5.857   c-0.394,0-0.712-0.318-0.712-0.71s0.318-0.71,0.712-0.71h5.857c3.494,0,6.334,2.841,6.334,6.334v38.49   C39.385,53.875,36.545,56.717,33.051,56.717"/><path d="M14.203,4.384c-0.715,0-1.299,0.581-1.299,1.298v4.285c0,0.716,0.584,1.298,1.299,1.298h10.981   c0.716,0,1.298-0.582,1.298-1.298V5.682c0-0.717-0.582-1.298-1.298-1.298h-2.528c-0.392,0-0.711-0.319-0.711-0.711   c0-1.242-1.01-2.252-2.251-2.252s-2.252,1.01-2.252,2.252c0,0.392-0.319,0.711-0.71,0.711H14.203z M25.184,12.686H14.203   c-1.5,0-2.719-1.22-2.719-2.719V5.682c0-1.5,1.219-2.72,2.719-2.72h1.887C16.422,1.276,17.912,0,19.694,0   c1.782,0,3.271,1.276,3.603,2.962h1.887c1.499,0,2.719,1.22,2.719,2.72v4.285C27.903,11.466,26.683,12.686,25.184,12.686"/><path d="M34.658,52.116H4.727c-0.196,0-0.354-0.159-0.354-0.355V9.833c0-0.196,0.158-0.355,0.354-0.355h7.468   c0.195,0,0.354,0.159,0.354,0.355c0,0.196-0.159,0.355-0.354,0.355H5.083v41.218h29.22V10.188h-7.494   c-0.197,0-0.354-0.159-0.354-0.355c0-0.196,0.157-0.355,0.354-0.355h7.849c0.196,0,0.355,0.159,0.355,0.355v41.928   C35.013,51.957,34.854,52.116,34.658,52.116"/><path d="M29.387,19.207H14.389c-0.196,0-0.355-0.159-0.355-0.355c0-0.196,0.159-0.355,0.355-0.355h14.998   c0.197,0,0.355,0.159,0.355,0.355C29.742,19.048,29.584,19.207,29.387,19.207"/><path d="M29.387,27.17H14.389c-0.196,0-0.355-0.159-0.355-0.355c0-0.196,0.159-0.355,0.355-0.355h14.998   c0.197,0,0.355,0.159,0.355,0.355C29.742,27.011,29.584,27.17,29.387,27.17"/><path d="M29.387,35.133H14.389c-0.196,0-0.355-0.159-0.355-0.355c0-0.196,0.159-0.355,0.355-0.355h14.998   c0.197,0,0.355,0.159,0.355,0.355C29.742,34.974,29.584,35.133,29.387,35.133"/><path d="M29.387,43.096H14.389c-0.196,0-0.355-0.159-0.355-0.355c0-0.196,0.159-0.355,0.355-0.355h14.998   c0.197,0,0.355,0.159,0.355,0.355C29.742,42.937,29.584,43.096,29.387,43.096"/><path d="M11.448,18.852c0,0.4-0.323,0.724-0.725,0.724c-0.399,0-0.723-0.324-0.723-0.724c0-0.4,0.324-0.724,0.723-0.724   C11.125,18.128,11.448,18.452,11.448,18.852"/><path d="M11.448,26.815c0,0.4-0.323,0.724-0.725,0.724c-0.399,0-0.723-0.324-0.723-0.724c0-0.4,0.324-0.724,0.723-0.724   C11.125,26.091,11.448,26.415,11.448,26.815"/><path d="M11.448,34.778c0,0.4-0.323,0.724-0.725,0.724c-0.399,0-0.723-0.324-0.723-0.724c0-0.4,0.324-0.724,0.723-0.724   C11.125,34.054,11.448,34.378,11.448,34.778"/><path d="M11.448,42.741c0,0.4-0.323,0.724-0.725,0.724c-0.399,0-0.723-0.324-0.723-0.724c0-0.4,0.324-0.724,0.723-0.724   C11.125,42.017,11.448,42.341,11.448,42.741"/></g><text x="0" y="71.717" fill="#000000" font-size="5px" font-weight="bold" font-family="'Helvetica Neue', Helvetica, Arial-Unicode, Arial, Sans-serif">Created by Leandro Mangado</text><text x="0" y="76.717" fill="#000000" font-size="5px" font-weight="bold" font-family="'Helvetica Neue', Helvetica, Arial-Unicode, Arial, Sans-serif">from the Noun Project</text></svg>