<svg xmlns="http://www.w3.org/2000/svg" xmlns:xlink="http://www.w3.org/1999/xlink" version="1.1" x="0px" y="0px" viewBox="0 0 100 125" enable-background="new 0 0 100 100" xml:space="preserve"><g><g><g><g><g><path fill="#000000" d="M24.3,72.6c0.6-0.7,1.3-1.6,1.5-1.8c0-0.1,0.1-0.2,0.2-0.2c0.2-0.2,0.6-0.5,1.4-0.4l4,0.5l-2.2-3.6       C29,67,29,66.8,29,66.6c0-0.1,0-0.2,0-0.3l0-0.1l0-0.1c0,0,0,0,0-0.1l0,0c0,0,0,0,0-0.1l0-0.1l1.7-3.9l-4.1,0.8       c-0.6,0.1-1,0-1.2-0.1c0,0,0,0,0,0c-0.1,0-0.1-0.1-0.2-0.1l-3.2-2.8c0,0-0.2,2.9-0.3,3.2c0,1.1-0.1,1.8-0.7,2.1l-1.9,1.1       l-1.9,1.1c0,0,0.7,0.3,1.6,0.6c1.1,0.4,2.4,1,2.6,1.1c0.4,0.3,0.5,0.5,0.6,0.7l0.1,0.3c0.1,0.6,0.8,4,0.8,4       S23.7,73.3,24.3,72.6z M59.8,35.8c-0.5,0.8-0.9,1.7-0.7,2.7c0,0.7,0.3,1.3,0.7,1.8c1.5,1.1,2.9,2.3,4.2,3.7       c1.5-1.8,3-3.7,3.3-4.1c0.3-0.4,0.8-0.8,1.4-1c0.1,0,0.2-0.1,0.3-0.1c0.3,0,0.5,0,0.8,0.1c1,0.3,1.2,1.1,1.4,1.6l0.2,0.7       l2.1,8.7l9,3.7c1,0.4,1.5,1.2,1.4,2.1c0,0.5-0.2,1.1-1.2,1.7l-8.2,5l-0.2,3.3c0.5,2.5,0.7,5,0.7,7.5c0,4-1.6,7.4-4.3,10.2       c-4.8,4.6-14.4,6.7-23.9,6.7c-9.5,0-19.1-2-23.8-6.7c-2.7-2.7-4.3-6.1-4.3-10.2c0-0.6,0-1.1,0-1.7L12,68.8       c-0.4-0.2-0.8-0.7-0.7-1.4c0-0.5,0.2-1,0.6-1.1c1.3-0.8,6.5-3.7,6.5-3.7s0.4-5.3,0.6-7.6c0.1-0.4,0.5-0.8,1-1       c0.5-0.2,1.1,0,1.5,0.3c0.3,0.3,0.7,0.7,1.2,1c1-2.3,2.2-4.5,3.5-6.5c2.2-3.5,4.9-6.2,7.8-8.3c0.5-0.6,0.7-1.1,0.7-1.8       c0.2-1-0.2-1.9-0.7-2.7c-2.7-3-4.6-7.2-4.6-11.8c0-9.6,7.8-17.5,17.5-17.5h0.1c0.1,0,0.1,0,0.2,0c9.7,0,17.5,7.9,17.5,17.5       C64.4,28.6,62.6,32.8,59.8,35.8z M59.3,47.3c-4-3.9-8.6-6-12.5-6c-6.9,0-15.8,6.5-20,17.7c0.1,0.1,0.1,0.1,0.1,0.1       s6.2-1.5,6.9-1.7c0.3-0.1,0.9-0.1,1.2,0c0.1,0,0.1,0,0.2,0.1c0.2,0.1,0.3,0.2,0.4,0.4c0.4,0.6,0.2,1.2,0.1,1.6l-0.2,0.5       l-2.7,6.1l3.6,6.2c0.4,0.7,0.4,1.4-0.1,1.9c-0.2,0.3-0.6,0.6-1.5,0.5l-7-0.8l-2.7,3.2c0.4,0.8,0.9,1.6,1.6,2.3       c3.5,3.3,11.8,4.9,20,4.9c8.3,0,16.7-1.7,20.1-4.9c1.6-1.7,2.5-3.7,2.5-6.1c0-0.2,0-0.4,0-0.6l-6.2-5.3L53.3,70       c-0.6,0.2-1.4-0.2-1.9-0.9c-0.4-0.6-0.6-1.2-0.3-1.7c0.8-2,3.9-9.3,3.9-9.3s-3.9-5.9-5.6-8.6c-0.2-0.4-0.1-1.3,0.2-1.8       c0.4-0.6,1.1-0.9,1.8-0.9C53.4,46.9,57,47.1,59.3,47.3z M57.8,55.3c1,1.5,1.6,2.3,1.2,3.3l-2.7,6.4c0,0,6.2-1.7,6.9-1.9       c0.8,0,1.1,0.1,1.3,0.3l0.4,0.4c0.5,0.4,2.6,2.3,3.9,3.4c0.6,0.5,1,0.9,1,0.9s0.3-5.7,0.3-6.5c0-0.1,0-0.3,0.1-0.4       c0-0.5,0.2-1.1,1.4-1.8l0.8-0.4l4.8-2.9L71,53.7c-0.3-0.1-0.6-0.3-0.8-0.6c-0.1,0-0.1-0.1-0.1-0.2c0-0.1-0.1-0.2-0.1-0.3l0-0.1       l0-0.1c0-0.1,0-0.1-0.1-0.2l0-0.1c0,0,0,0,0-0.1l0-0.1l-1.6-6.5l-1.6,1.8l-2.8,3.2c-0.4,0.5-0.8,0.7-1.1,0.8       c-0.2,0.1-0.4,0.1-0.6,0.1c-0.1,0-0.3,0-0.4,0l-6.8-0.5C55.2,51.3,57.6,55,57.8,55.3z M58.9,23.9c0-6.7-5.4-12.2-12.2-12.2       c-6.8,0-12.1,5.5-12.1,12.2S40.1,36,46.8,36S58.9,30.6,58.9,23.9z"/></g></g></g></g></g><text x="0" y="115" fill="#000000" font-size="5px" font-weight="bold" font-family="'Helvetica Neue', Helvetica, Arial-Unicode, Arial, Sans-serif">Created by MRFA</text><text x="0" y="120" fill="#000000" font-size="5px" font-weight="bold" font-family="'Helvetica Neue', Helvetica, Arial-Unicode, Arial, Sans-serif">from the Noun Project</text></svg>