<svg xmlns="http://www.w3.org/2000/svg" viewBox="0 0 24 30" x="0px" y="0px"><title>Artboard 2</title><g data-name="Layer 40"><path d="M12,2a10,10,0,0,0,0,20,1,1,0,0,0,0-2,8,8,0,1,1,8-8,1,1,0,0,0,2,0A10,10,0,0,0,12,2Z"/><path d="M12,6a1,1,0,0,0-1,1v4.59l-2.71,2.7a1,1,0,0,0,0,1.42,1,1,0,0,0,1.42,0l3-3A1,1,0,0,0,13,12V7A1,1,0,0,0,12,6Z"/><path d="M20.71,15.29a1,1,0,0,0-1.42,0L18,16.59l-1.29-1.3a1,1,0,0,0-1.42,1.42L16.59,18l-1.3,1.29a1,1,0,0,0,0,1.42,1,1,0,0,0,1.42,0L18,19.41l1.29,1.3a1,1,0,0,0,1.42,0,1,1,0,0,0,0-1.42L19.41,18l1.3-1.29A1,1,0,0,0,20.71,15.29Z"/></g><text x="0" y="39" fill="#000000" font-size="5px" font-weight="bold" font-family="'Helvetica Neue', Helvetica, Arial-Unicode, Arial, Sans-serif">Created by ghufronagustian</text><text x="0" y="44" fill="#000000" font-size="5px" font-weight="bold" font-family="'Helvetica Neue', Helvetica, Arial-Unicode, Arial, Sans-serif">from the Noun Project</text></svg>