<svg xmlns="http://www.w3.org/2000/svg" xmlns:xlink="http://www.w3.org/1999/xlink" version="1.1" x="0px" y="0px" viewBox="0 0 32 40" style="enable-background:new 0 0 32 32;" xml:space="preserve"><g><path d="M31,12h-3V1c0-0.5522461-0.4472656-1-1-1H1C0.4472656,0,0,0.4477539,0,1v18c0,0.5522461,0.4472656,1,1,1h3v11   c0,0.5522461,0.4472656,1,1,1h26c0.5527344,0,1-0.4477539,1-1V13C32,12.4477539,31.5527344,12,31,12z M2,6h24v2H2V6z M26,2v2H2V2   H26z M2,18v-8h24v2H5c-0.5527344,0-1,0.4477539-1,1v5H2z M30,30H6V14h24V30z"/><circle cx="27" cy="23" r="1"/><circle cx="24" cy="23" r="1"/><path d="M27,26h-3c-0.5527344,0-1,0.4477539-1,1s0.4472656,1,1,1h3c0.5527344,0,1-0.4477539,1-1S27.5527344,26,27,26z"/><path d="M20,26h-4c-0.5527344,0-1,0.4477539-1,1s0.4472656,1,1,1h4c0.5527344,0,1-0.4477539,1-1S20.5527344,26,20,26z"/><path d="M12,26H9c-0.5527344,0-1,0.4477539-1,1s0.4472656,1,1,1h3c0.5527344,0,1-0.4477539,1-1S12.5527344,26,12,26z"/></g><text x="0" y="47" fill="#000000" font-size="5px" font-weight="bold" font-family="'Helvetica Neue', Helvetica, Arial-Unicode, Arial, Sans-serif">Created by ibnu nasikin hasanah</text><text x="0" y="52" fill="#000000" font-size="5px" font-weight="bold" font-family="'Helvetica Neue', Helvetica, Arial-Unicode, Arial, Sans-serif">from the Noun Project</text></svg>