<svg xmlns="http://www.w3.org/2000/svg" xmlns:xlink="http://www.w3.org/1999/xlink" version="1.1" x="0px" y="0px" viewBox="0 0 100 125" enable-background="new 0 0 100 100" xml:space="preserve"><g><circle cx="41.793" cy="14.229" r="9.229"/><path d="M54.391,41.455c-1.154-1.604-1.842-3.564-1.842-5.687c0-2.977,1.342-5.642,3.447-7.435   c-1.081-1.432-2.792-2.361-4.725-2.361h-9.477h-0.002h-9.477c-3.271,0-5.924,2.651-5.924,5.924V53.3   c0,3.271,2.652,5.925,5.922,5.925h1.439v31.207c0,2.521,2.045,4.568,4.568,4.568h6.941c2.525,0,4.568-2.047,4.568-4.568V82.1   c-0.933-1.079-1.5-2.482-1.5-4.018v-0.304l0.061-0.297l1.439-7.036l0.199-0.974c-0.07-0.074-0.133-0.154-0.199-0.23   c-1.146-1.314-1.811-3.011-1.811-4.817V48.729C48.021,45.009,50.801,41.935,54.391,41.455z"/><path d="M73.607,64.424V48.729c0-2.4-1.941-4.346-4.344-4.346h-2.352h-9.191h-2.355c-2.398,0-4.344,1.945-4.344,4.346v15.695   c0,1.667,0.939,3.112,2.318,3.84l-2.008,9.818c0,1.747,1.416,3.161,3.162,3.161h1.926v10.405c0,1.851,1.498,3.352,3.35,3.352h5.092   c1.85,0,3.35-1.501,3.35-3.352V81.243h1.93c1.748,0,3.16-1.414,3.16-3.161l-2.008-9.819C72.67,67.534,73.607,66.09,73.607,64.424z"/><path d="M58.536,41.383c1.08,0.728,2.38,1.153,3.78,1.153s2.7-0.426,3.78-1.153c1.802-1.216,2.987-3.276,2.987-5.614   c0-3.736-3.029-6.769-6.768-6.769s-6.768,3.032-6.768,6.769C55.549,38.106,56.734,40.167,58.536,41.383z"/></g><text x="0" y="115" fill="#000000" font-size="5px" font-weight="bold" font-family="'Helvetica Neue', Helvetica, Arial-Unicode, Arial, Sans-serif">Created by Wilson Joseph</text><text x="0" y="120" fill="#000000" font-size="5px" font-weight="bold" font-family="'Helvetica Neue', Helvetica, Arial-Unicode, Arial, Sans-serif">from the Noun Project</text></svg>