<svg xmlns="http://www.w3.org/2000/svg" xmlns:xlink="http://www.w3.org/1999/xlink" version="1.1" x="0px" y="0px" viewBox="0 0 32 40" style="enable-background:new 0 0 32 32;" xml:space="preserve"><g><g><g><path d="M22,15H10c-2.7568359,0-5,2.2431641-5,5v6v3c0,1.1030273,0.8974609,2,2,2h3.9873047h10.0253906H25     c1.1025391,0,2-0.8969727,2-2v-3v-6C27,17.2431641,24.7568359,15,22,15z M24.9584351,23.2675171     c-0.0324707,0.116394-0.081665,0.2301025-0.1586304,0.3325806l-3.6914063,4.9223633l-2.8154297-2.8154297     C18.1625366,25.5765991,18.09198,25.4163818,18.048645,25.25c-0.0864868-0.3319702-0.0158691-0.6968384,0.2443237-0.9570313     c0.390625-0.390625,1.0234375-0.390625,1.4140625,0l1.1845703,1.1845703l2.3085938-3.0776367     c0.3320313-0.440918,0.9580078-0.53125,1.3994141-0.199707C24.9393921,22.4544678,25.0661011,22.8820801,24.9584351,23.2675171z      M21,23H11c-0.5527344,0-1-0.4477539-1-1c0-0.1464844,0.0350952-0.2832031,0.0916138-0.4085693     C10.248291,21.2440796,10.5938721,21,11,21h10c0.5527344,0,1,0.4477539,1,1c0,0.4059448-0.2439575,0.7518311-0.5915527,0.9085693     C21.2831421,22.9650269,21.1464233,23,21,23z M22,19c0,0.4059448-0.2439575,0.7518311-0.5915527,0.9085693     C21.2831421,19.9650269,21.1464233,20,21,20H11c-0.5527344,0-1-0.4477539-1-1     c0-0.1464844,0.0350952-0.2832031,0.0916138-0.4085693C10.248291,18.2440796,10.5938721,18,11,18h10     C21.5527344,18,22,18.4477539,22,19z M16.4084473,25.9085693C16.2831421,25.9650269,16.1464233,26,16,26h-5     c-0.5527344,0-1-0.4477539-1-1c0-0.1464844,0.0350952-0.2832031,0.0916138-0.4085693C10.248291,24.2440796,10.5938721,24,11,24h5     c0.5527344,0,1,0.4477539,1,1C17,25.4059448,16.7560425,25.7518311,16.4084473,25.9085693z M21.1083984,29.0224609L21.0859375,29     h0.0393066L21.1083984,29.0224609z"/><circle cx="16" cy="8" r="6"/></g></g></g><text x="0" y="47" fill="#000000" font-size="5px" font-weight="bold" font-family="'Helvetica Neue', Helvetica, Arial-Unicode, Arial, Sans-serif">Created by Dam</text><text x="0" y="52" fill="#000000" font-size="5px" font-weight="bold" font-family="'Helvetica Neue', Helvetica, Arial-Unicode, Arial, Sans-serif">from the Noun Project</text></svg>